<?xml version="1.0" standalone="no"?>
<!DOCTYPE svg PUBLIC "-//W3C//DTD SVG 20010904//EN"
 "http://www.w3.org/TR/2001/REC-SVG-20010904/DTD/svg10.dtd">
<svg version="1.0" xmlns="http://www.w3.org/2000/svg"
 width="512.000000pt" height="512.000000pt" viewBox="0 0 512.000000 512.000000"
 preserveAspectRatio="xMidYMid meet">
<metadata>
Created by potrace 1.14, written by Peter Selinger 2001-2017
</metadata>
<g transform="translate(0.000000,512.000000) scale(0.100000,-0.100000)"
fill="#000000" stroke="none">
<path d="M3970 4830 c-311 -67 -541 -246 -682 -530 l-37 -75 -1366 -2 c-897
-1 -1382 -5 -1414 -12 -232 -50 -404 -216 -456 -443 -13 -59 -15 -201 -12
-1125 2 -942 4 -1063 19 -1103 60 -167 164 -289 303 -355 98 -46 161 -58 305
-61 69 -1 128 -3 132 -3 4 -1 7 -188 7 -417 0 -229 1 -417 3 -419 2 -2 71 42
153 97 83 55 365 245 628 420 l478 320 873 0 c718 -1 886 2 943 14 202 41 371
197 439 404 17 50 19 113 24 724 l5 668 72 18 c319 82 588 330 687 635 53 165
59 401 13 555 -55 183 -139 323 -267 443 -125 118 -264 195 -436 243 -91 25
-308 27 -414 4z"/>
</g>
</svg>
